<svg id="Layer_1" enable-background="new 0 0 512 512" height="512" viewBox="0 0 512 512" width="512" xmlns="http://www.w3.org/2000/svg"><g clip-rule="evenodd" fill-rule="evenodd"><path d="m253.955 119.682h-2.278c-13.437 0-24.449 10.979-24.449 24.439v24.439l25.588 16.882 25.588-16.882v-24.439c0-13.46-10.983-24.439-24.449-24.439z" fill="#fe636e"/><path d="m227.228 168.561h-189.079c-10.107 0-18.373 8.38-18.373 18.512v185.354l117.163 15.446 115.878-15.446v-203.866z" fill="#ececec"/><path d="m371.673 190.051c-15.978-16.789-20.535-21.49-35.637-21.49h-57.632-25.588l-17 106.809 17 97.057 137.26 16.906 102.003-16.906h.584v-41.287l-.029-29.695c-.409-13.315-6.163-29.958-27.604-33.053-21.645-3.124-29.795-4.964-39.405-16.38z" fill="#03bed7"/><path d="m55.909 372.427h-36.864-1.431c-9.698 0-17.614 7.912-17.614 17.606s7.916 17.607 17.614 17.607h75.655c.876-13.694 6.718-26.016 15.774-35.214h-53.134z" fill="#acacac"/><path d="m492.079 372.427h-70.66c3.973 4 7.303 8.643 9.873 13.694.993 1.927 1.84 3.883 2.6 5.898 1.811 4.935 2.95 10.161 3.301 15.621h57.194c9.698 0 17.614-7.913 17.614-17.607s-7.916-17.607-17.614-17.607h-2.308z" fill="#acacac"/><path d="m247.003 372.427h-47.146-42.793c3.943 4 7.273 8.643 9.873 13.694.964 1.927 1.811 3.883 2.571 5.898 1.811 4.935 2.95 10.161 3.301 15.621h34.79 42.034 35.666 24.741 47.613c.876-13.694 6.718-26.016 15.744-35.214h-65.052-61.342z" fill="#acacac"/><path d="m392.267 355.871c30.554 0 55.324 24.761 55.324 55.332 0 30.542-24.77 55.302-55.324 55.302s-55.325-24.761-55.325-55.302c0-30.572 24.77-55.332 55.325-55.332z" fill="#838383"/><path d="m412.597 372.427c8.938 9.168 14.751 21.461 15.598 35.097.088 1.168.117 2.336.117 3.533 0 27.388-19.922 50.134-46.094 54.543 3.272.584 6.631.905 10.048.905 30.554 0 55.324-24.761 55.324-55.302 0-1.197-.029-2.394-.117-3.562-.321-5.46-1.461-10.687-3.272-15.621-.263-.672-.526-1.314-.789-1.986-.555-1.314-1.168-2.628-1.811-3.913-2.571-5.051-5.93-9.694-9.873-13.694-10.048-10.22-24.011-16.556-39.463-16.556-3.155 0-6.251.263-9.26.788 11.421 2.073 21.616 7.679 29.444 15.621.031.059.09.088.148.147z" fill="#595959"/><path d="m370.3 411.203c0 12.117 9.815 21.957 21.966 21.957 12.122 0 21.966-9.84 21.966-21.957 0-12.147-9.844-21.987-21.966-21.987-12.151 0-21.966 9.84-21.966 21.987z" fill="#e6e6e6"/><path d="m461.32 301.445c-5.959 0-10.808 4.847-10.808 10.774v8.117c0 5.957 4.849 10.803 10.808 10.803h31.343v-27.564c0-.701 0-1.402-.029-2.132h-31.314z" fill="#a6e7f0"/><path d="m342.434 212.593c-4.382-5.46-8.325-8.146-16.387-8.146h-27.195c-1.869 0-3.418 1.139-3.505 2.569l.088 46.076c0 5.957 5.521 12.059 14.255 12.059h65.957c1.665-.088 2.979-1.139 2.979-2.423v-3.27c0-4.351-2.249-4.613-8.617-12.555z" fill="#a6e7f0"/><path d="m150.288 224.798h-27.984c-2.804 0-5.083 2.307-5.083 5.11v21.49h-21.528c-2.804 0-5.083 2.307-5.083 5.11v27.972c0 2.803 2.278 5.081 5.083 5.081h21.528v21.52c0 2.803 2.278 5.081 5.083 5.081h27.984c2.804 0 5.112-2.277 5.112-5.081v-21.52h21.499c2.804 0 5.112-2.277 5.112-5.081v-27.972c0-2.803-2.308-5.11-5.112-5.11h-21.499v-21.49c-.001-2.803-2.308-5.11-5.112-5.11z" fill="#fe636e"/><path d="m88.42 372.427c-9.026 9.198-14.897 21.52-15.744 35.214-.088 1.168-.117 2.365-.117 3.562 0 30.542 24.77 55.302 55.325 55.302s55.354-24.761 55.354-55.302c0-1.197-.058-2.394-.117-3.562-.876-13.694-6.718-26.016-15.774-35.214-10.019-10.22-24.011-16.556-39.463-16.556s-29.416 6.336-39.464 16.556z" fill="#838383"/><path d="m148.214 372.427c8.968 9.168 14.751 21.461 15.628 35.097.058 1.168.088 2.336.088 3.533 0 27.388-19.922 50.134-46.065 54.543 3.242.584 6.602.905 10.019.905 30.554 0 55.354-24.761 55.354-55.302 0-1.197-.058-2.394-.117-3.562-.351-5.46-1.49-10.687-3.301-15.621-.263-.672-.526-1.314-.789-1.986-.555-1.314-1.139-2.628-1.811-3.913-2.57-5.051-5.9-9.694-9.873-13.694-10.019-10.22-24.011-16.556-39.463-16.556-3.155 0-6.222.263-9.23.788 11.421 2.073 21.616 7.679 29.415 15.621.057.059.086.088.145.147z" fill="#595959"/><path d="m105.917 411.203c0 12.117 9.844 21.957 21.966 21.957 12.152 0 21.966-9.84 21.966-21.957 0-12.147-9.815-21.987-21.966-21.987-12.122 0-21.966 9.84-21.966 21.987z" fill="#e6e6e6"/><path d="m278.404 144.122c0-13.461-10.983-24.439-24.449-24.439h-2.278c-2.162 0-4.265.263-6.28.818.088 0 .175.029.234.058 10.311 2.861 17.964 12.351 17.964 23.563v24.439h14.81v-24.381-.058z" fill="#fb2a39"/><path d="m492.634 301.445h-21.441v29.695h21.47z" fill="#6bd9e7"/><path d="m492.663 331.14h-21.47v18.483 22.804h20.885.584v-41.287z" fill="#0099b1"/><path d="m492.634 301.445h-21.441v29.695h21.47z" fill="#6bd9e7"/><path d="m252.816 168.561h-25.588v203.866h19.775 5.813z" fill="#cecece"/><path d="m342.434 212.593c-4.382-5.46-8.325-8.146-16.387-8.146h-23.69c8.062 0 11.976 2.686 16.387 8.146l27.545 34.309c6.368 7.942 8.646 8.205 8.646 12.555v3.27c0 1.285-1.314 2.336-2.979 2.423h23.69c1.665-.088 2.979-1.139 2.979-2.423v-3.27c0-4.351-2.249-4.613-8.617-12.555z" fill="#6bd9e7"/><path d="m176.898 251.398h-21.499v-21.49c0-2.803-2.308-5.11-5.112-5.11h-24.975c10.895 10.424 17.848 26.425 17.848 44.324 0 19.563-8.267 36.82-20.915 47.039h.058 27.984c2.804 0 5.112-2.277 5.112-5.081v-21.52h21.499c2.804 0 5.112-2.277 5.112-5.081v-27.972c0-2.802-2.308-5.109-5.112-5.109z" fill="#fb2a39"/><path d="m492.634 301.445c-.409-13.315-6.163-29.958-27.604-33.053-1.723-.234-3.359-.496-4.937-.73 8.15 9.898 10.808 24.877 11.1 33.783z" fill="#0099b1"/></g><path d="m255.474 89.368c-4.302 0-7.789-3.487-7.789-7.789v-28.295c0-4.302 3.487-7.789 7.789-7.789s7.789 3.487 7.789 7.789v28.294c0 4.302-3.487 7.79-7.789 7.79z" fill="#fe636e"/><path d="m206.634 99.383c-1.993 0-3.986-.76-5.507-2.28l-20.038-20.03c-3.043-3.042-3.044-7.974-.003-11.016 3.042-3.043 7.974-3.044 11.016-.003l20.038 20.03c3.043 3.042 3.044 7.974.003 11.016-1.521 1.522-3.515 2.283-5.509 2.283z" fill="#fe636e"/><path d="m304.343 99.383c-1.995 0-3.988-.761-5.509-2.282-3.042-3.043-3.041-7.975.002-11.016l20.038-20.03c3.042-3.042 7.975-3.04 11.015.002 3.042 3.043 3.041 7.975-.002 11.016l-20.038 20.03c-1.52 1.519-3.513 2.28-5.506 2.28z" fill="#fe636e"/><path d="m315.093 306.606h-19.688c-4.302 0-7.789-3.487-7.789-7.789s3.487-7.789 7.789-7.789h19.688c4.302 0 7.789 3.487 7.789 7.789s-3.487 7.789-7.789 7.789z" fill="#ececec"/></svg>